<svg width="150" height="44" viewBox="0 0 150 44" fill="none" xmlns="http://www.w3.org/2000/svg">
<path d="M67.0523 15.313H70.3584V30H67.0523V23.7692H61.4996V30H58.1935V15.313H61.4996V20.9293H67.0523V15.313ZM73.7573 30V15.313H83.6758V18.0893H77.0635V20.9716H82.934V23.6844H77.0635V27.2237H84.1632V30H73.7573ZM96.4436 30C96.2882 29.4914 96.1116 28.9686 95.9138 28.4317C95.7301 27.8948 95.5464 27.3579 95.3627 26.821H89.6405C89.4569 27.3579 89.2661 27.8948 89.0683 28.4317C88.8846 28.9686 88.7151 29.4914 88.5597 30H85.1264C85.6774 28.4176 86.2002 26.9552 86.6947 25.613C87.1892 24.2707 87.6696 23.0062 88.1358 21.8194C88.6162 20.6325 89.0825 19.5093 89.5346 18.4496C90.0008 17.3758 90.4812 16.3303 90.9757 15.313H94.1335C94.6139 16.3303 95.0872 17.3758 95.5535 18.4496C96.0197 19.5093 96.486 20.6325 96.9522 21.8194C97.4326 23.0062 97.9201 24.2707 98.4146 25.613C98.9091 26.9552 99.4319 28.4176 99.9829 30H96.4436ZM92.4805 18.6404C92.4098 18.8523 92.3038 19.142 92.1626 19.5093C92.0213 19.8767 91.8588 20.3005 91.6751 20.7809C91.4914 21.2613 91.2866 21.7911 91.0605 22.3704C90.8486 22.9497 90.6296 23.5572 90.4035 24.193H94.5786C94.3525 23.5572 94.1335 22.9497 93.9216 22.3704C93.7097 21.7911 93.5048 21.2613 93.307 20.7809C93.1233 20.3005 92.9608 19.8767 92.8195 19.5093C92.6783 19.142 92.5652 18.8523 92.4805 18.6404ZM111.697 27.1601V30H101.884V15.313H105.19V27.1601H111.697ZM123.064 15.313V18.1317H118.634V30H115.328V18.1317H110.899V15.313H123.064ZM134.047 15.313H137.353V30H134.047V23.7692H128.495V30H125.188V15.313H128.495V20.9293H134.047V15.313Z" fill="white"/>
<path d="M39.0691 11.2744C38.4479 9.83883 37.5522 8.53792 36.4321 7.44451C35.3111 6.34783 33.9895 5.47632 32.5391 4.87736C31.035 4.25381 29.4219 3.93465 27.7933 3.93839C25.5085 3.93839 23.2793 4.56283 21.342 5.74233C20.8786 6.02448 20.4383 6.33439 20.0212 6.67205C19.6041 6.33439 19.1638 6.02448 18.7003 5.74233C16.7631 4.56283 14.5339 3.93839 12.2491 3.93839C10.6038 3.93839 9.00953 4.25292 7.50331 4.87736C6.04807 5.47867 4.73649 6.34364 3.6103 7.44451C2.48873 8.53669 1.59279 9.8379 0.973252 11.2744C0.329052 12.7684 0 14.355 0 15.9878C0 17.5281 0.315148 19.1331 0.940811 20.7659C1.46451 22.1304 2.21531 23.5458 3.17466 24.9751C4.69478 27.237 6.78496 29.596 9.3803 31.9873C13.6811 35.9514 17.9403 38.6897 18.121 38.8007L19.2194 39.5038C19.706 39.8137 20.3317 39.8137 20.8183 39.5038L21.9167 38.8007C22.0975 38.685 26.352 35.9514 30.6574 31.9873C33.2528 29.596 35.343 27.237 36.8631 24.9751C37.8224 23.5458 38.5779 22.1304 39.0969 20.7659C39.7226 19.1331 40.0377 17.5281 40.0377 15.9878C40.0424 14.355 39.7133 12.7684 39.0691 11.2744Z" fill="url(#paint0_linear_105_233)"/>
<path d="M14.6413 24.0526C14.5032 22.7596 14.5894 22.035 14.6413 20.7009C14.6853 19.5688 14.6643 18.0331 15.409 17.1922C16.0255 16.4958 17.4437 16.1426 18.3931 16.5707C19.5741 17.1032 19.7694 18.8701 19.8759 19.9895C19.9894 21.1825 19.774 22.9204 20.7824 23.7937C21.6307 24.5283 23.841 24.364 24.6123 23.5866C25.7114 22.4788 25.0183 18.1898 25.1522 16.5707" stroke="white" stroke-width="2.41303" stroke-linecap="round" stroke-linejoin="round"/>
<defs>
<linearGradient id="paint0_linear_105_233" x1="-4.67441e-07" y1="25.4113" x2="37.6375" y2="26.0832" gradientUnits="userSpaceOnUse">
<stop stop-color="#BD00FF"/>
<stop offset="1" stop-color="#5369DD"/>
</linearGradient>
</defs>
</svg>
