<svg width="83" height="24" viewBox="0 0 83 24" fill="none" xmlns="http://www.w3.org/2000/svg">
<path d="M3.12276 20.3232C2.8074 17.3942 3.00424 15.7527 3.12276 12.7305C3.22333 10.1659 3.17544 6.68706 4.87565 4.78201C6.28348 3.20457 9.52168 2.4043 11.6895 3.37412C14.3859 4.58041 14.8319 8.58299 15.0751 11.1188C15.3342 13.8215 14.8424 17.7584 17.1449 19.7366C19.0819 21.4008 24.1289 21.0285 25.8899 19.2675C28.3994 16.758 26.817 7.04199 27.1226 3.37411" stroke="url(#paint0_linear_103_55)" stroke-width="4.40259" stroke-linecap="round" stroke-linejoin="round"/>
<path d="M41.4144 6.87918C42.796 6.87918 43.8543 7.12716 44.5894 7.62312C45.3245 8.11022 45.692 8.87187 45.692 9.90806C45.692 10.5546 45.5415 11.0815 45.2404 11.4889C44.9481 11.8875 44.523 12.2019 43.965 12.4321C44.151 12.6624 44.3459 12.9281 44.5496 13.2292C44.7533 13.5215 44.9525 13.8314 45.1474 14.1591C45.3511 14.4779 45.5459 14.8145 45.7319 15.1687C45.9179 15.5141 46.0906 15.8551 46.25 16.1917H43.9252C43.7569 15.8905 43.5842 15.585 43.4071 15.275C43.2388 14.965 43.0617 14.6639 42.8757 14.3717C42.6986 14.0794 42.5214 13.8049 42.3443 13.548C42.1672 13.2823 41.9901 13.0432 41.8129 12.8307H40.79V16.1917H38.7176V7.11831C39.1693 7.02974 39.6343 6.96775 40.1125 6.93232C40.5996 6.8969 41.0336 6.87918 41.4144 6.87918ZM41.534 8.64603C41.3834 8.64603 41.2461 8.65046 41.1221 8.65931C41.007 8.66817 40.8963 8.67703 40.79 8.68588V11.1834H41.3745C42.1539 11.1834 42.7119 11.086 43.0484 10.8911C43.3849 10.6963 43.5532 10.3642 43.5532 9.89478C43.5532 9.4431 43.3805 9.12427 43.0351 8.93829C42.6986 8.74345 42.1982 8.64603 41.534 8.64603ZM47.5783 16.1917V6.98546H53.7955V8.72574H49.6507V10.5324H53.3305V12.2329H49.6507V14.4514H54.101V16.1917H47.5783ZM58.514 16.1917C58.1509 15.4211 57.7922 14.6196 57.438 13.7871C57.0837 12.9546 56.7472 12.131 56.4283 11.3162C56.1095 10.5014 55.8128 9.72208 55.5383 8.97814C55.2726 8.23421 55.0423 7.56998 54.8475 6.98546H57.1324C57.3095 7.51684 57.4999 8.09251 57.7036 8.71245C57.9162 9.32354 58.1287 9.93463 58.3413 10.5457C58.5627 11.1568 58.7753 11.7413 58.979 12.2993C59.1827 12.8572 59.3731 13.3399 59.5502 13.7473C59.7185 13.3399 59.9044 12.8572 60.1081 12.2993C60.3207 11.7413 60.5332 11.1568 60.7458 10.5457C60.9672 9.93463 61.1798 9.32354 61.3835 8.71245C61.596 8.09251 61.7909 7.51684 61.968 6.98546H64.1732C63.9695 7.56998 63.7348 8.23421 63.4691 8.97814C63.2034 9.72208 62.9112 10.5014 62.5924 11.3162C62.2735 12.131 61.937 12.9546 61.5827 13.7871C61.2285 14.6196 60.8698 15.4211 60.5067 16.1917H58.514ZM70.7979 16.1917C70.612 15.8905 70.3906 15.5673 70.1337 15.2219C69.8857 14.8676 69.6112 14.5178 69.3101 14.1724C69.0178 13.8181 68.7123 13.4816 68.3934 13.1628C68.0746 12.8351 67.7558 12.5473 67.437 12.2993V16.1917H65.3646V6.98546H67.437V10.466C67.9772 9.8992 68.5174 9.31026 69.0577 8.69917C69.6068 8.07922 70.116 7.50799 70.5854 6.98546H73.043C72.4142 7.72939 71.781 8.44676 71.1433 9.13756C70.5145 9.82835 69.8503 10.5236 69.1507 11.2232C69.8857 11.8343 70.5942 12.5605 71.2762 13.4019C71.967 14.2433 72.6268 15.1732 73.2556 16.1917H70.7979ZM78.0459 16.3776C77.3994 16.3776 76.8414 16.2891 76.3721 16.1119C75.9027 15.926 75.513 15.6736 75.203 15.3547C74.9019 15.027 74.6761 14.6418 74.5255 14.199C74.3838 13.7473 74.313 13.2513 74.313 12.7111V6.98546H76.3853V12.5384C76.3853 12.9104 76.4252 13.2292 76.5049 13.4949C76.5935 13.7517 76.7086 13.9643 76.8503 14.1325C77.0009 14.292 77.178 14.4071 77.3817 14.4779C77.5942 14.5488 77.8245 14.5842 78.0725 14.5842C78.5773 14.5842 78.9847 14.4292 79.2947 14.1193C79.6135 13.8093 79.7729 13.2823 79.7729 12.5384V6.98546H81.8453V12.7111C81.8453 13.2513 81.77 13.7473 81.6195 14.199C81.4689 14.6506 81.2386 15.0403 80.9287 15.368C80.6187 15.6868 80.2246 15.9348 79.7463 16.1119C79.2681 16.2891 78.7013 16.3776 78.0459 16.3776Z" fill="white"/>
<defs>
<linearGradient id="paint0_linear_103_55" x1="-2.06656" y1="11.7576" x2="32.4498" y2="11.7576" gradientUnits="userSpaceOnUse">
<stop stop-color="#BD00FF"/>
<stop offset="1" stop-color="#5369DD"/>
</linearGradient>
</defs>
</svg>
