<svg width="76" height="76" viewBox="0 0 76 76" fill="none" xmlns="http://www.w3.org/2000/svg">
<path d="M15.8428 14.1786C15.8428 9.63079 19.741 5.65447 24.776 6.13175C41.1706 7.69097 56.3598 15.0967 67.3423 26.8858C70.7307 30.5126 69.6762 35.8964 65.8255 38.5746L64.486 39.5079L63.3365 37.8663L63.3112 37.8298C53.2095 24.4356 36.7745 15.7169 18.2178 15.7169H15.8428V14.1786ZM59.4415 40.4746L60.6385 42.1862C56.4704 45.0869 52.3041 47.9901 48.1397 50.8958L47.5 51.3518V57.7418C47.5 58.5481 47.1664 59.3213 46.5725 59.8914C45.9786 60.4616 45.1732 60.7818 44.3333 60.7818C43.4935 60.7818 42.688 60.4616 42.0942 59.8914C41.5003 59.3213 41.1667 58.5481 41.1667 57.7418V57.5594C41.116 57.1768 40.9157 56.827 40.6064 56.5808C40.2971 56.3347 39.9018 56.2107 39.5008 56.2338C39.0997 56.257 38.7228 56.4257 38.4465 56.7057C38.1702 56.9857 38.0151 57.3561 38.0127 57.7418V62.3049C38.0128 63.0849 37.7006 63.835 37.1407 64.4002C36.5808 64.9654 35.816 65.3024 35.0045 65.3414C34.1931 65.3805 33.397 65.1186 32.7811 64.61C32.1651 64.1014 31.7763 63.3849 31.6952 62.6089L27.1352 65.7705C22.42 69.0354 15.8302 65.8009 15.8333 60.2194L15.8428 20.2738H18.2178C35.1722 20.2738 50.1885 28.2295 59.4415 40.4746ZM28.5127 33.4218C29.3525 33.4218 30.158 33.1016 30.7518 32.5314C31.3457 31.9613 31.6793 31.1881 31.6793 30.3818C31.6793 29.5756 31.3457 28.8023 30.7518 28.2322C30.158 27.6621 29.3525 27.3418 28.5127 27.3418C27.6728 27.3418 26.8674 27.6621 26.2735 28.2322C25.6796 28.8023 25.346 29.5756 25.346 30.3818C25.346 31.1881 25.6796 31.9613 26.2735 32.5314C26.8674 33.1016 27.6728 33.4218 28.5127 33.4218ZM41.1793 42.5358C42.0192 42.5358 42.8246 42.2155 43.4185 41.6454C44.0124 41.0752 44.346 40.302 44.346 39.4958C44.346 38.6895 44.0124 37.9163 43.4185 37.3461C42.8246 36.776 42.0192 36.4558 41.1793 36.4558C40.3395 36.4558 39.534 36.776 38.9402 37.3461C38.3463 37.9163 38.0127 38.6895 38.0127 39.4958C38.0127 40.302 38.3463 41.0752 38.9402 41.6454C39.534 42.2155 40.3395 42.5358 41.1793 42.5358ZM28.5127 51.6497C29.3525 51.6497 30.158 51.3294 30.7518 50.7593C31.3457 50.1892 31.6793 49.4159 31.6793 48.6097C31.6793 47.8034 31.3457 47.0302 30.7518 46.4601C30.158 45.89 29.3525 45.5697 28.5127 45.5697C27.6728 45.5697 26.8674 45.89 26.2735 46.4601C25.6796 47.0302 25.346 47.8034 25.346 48.6097C25.346 49.4159 25.6796 50.1892 26.2735 50.7593C26.8674 51.3294 27.6728 51.6497 28.5127 51.6497Z" fill="white"/>
</svg>
