<svg width="34" height="34" viewBox="0 0 34 34" fill="none" xmlns="http://www.w3.org/2000/svg">
<path fill-rule="evenodd" clip-rule="evenodd" d="M5.09998 8.50005C5.09998 8.04918 5.27908 7.61678 5.59789 7.29797C5.91671 6.97916 6.34911 6.80005 6.79998 6.80005H27.2C27.6508 6.80005 28.0832 6.97916 28.4021 7.29797C28.7209 7.61678 28.9 8.04918 28.9 8.50005C28.9 8.95092 28.7209 9.38332 28.4021 9.70213C28.0832 10.0209 27.6508 10.2 27.2 10.2H6.79998C6.34911 10.2 5.91671 10.0209 5.59789 9.70213C5.27908 9.38332 5.09998 8.95092 5.09998 8.50005ZM5.09998 17C5.09998 16.5492 5.27908 16.1168 5.59789 15.798C5.91671 15.4792 6.34911 15.3 6.79998 15.3H27.2C27.6508 15.3 28.0832 15.4792 28.4021 15.798C28.7209 16.1168 28.9 16.5492 28.9 17C28.9 17.4509 28.7209 17.8833 28.4021 18.2021C28.0832 18.5209 27.6508 18.7 27.2 18.7H6.79998C6.34911 18.7 5.91671 18.5209 5.59789 18.2021C5.27908 17.8833 5.09998 17.4509 5.09998 17ZM5.09998 25.5C5.09998 25.0492 5.27908 24.6168 5.59789 24.298C5.91671 23.9792 6.34911 23.8 6.79998 23.8H27.2C27.6508 23.8 28.0832 23.9792 28.4021 24.298C28.7209 24.6168 28.9 25.0492 28.9 25.5C28.9 25.9509 28.7209 26.3833 28.4021 26.7021C28.0832 27.0209 27.6508 27.2 27.2 27.2H6.79998C6.34911 27.2 5.91671 27.0209 5.59789 26.7021C5.27908 26.3833 5.09998 25.9509 5.09998 25.5Z" fill="white"/>
</svg>
