<svg width="76" height="76" viewBox="0 0 76 76" fill="none" xmlns="http://www.w3.org/2000/svg">
<g clip-path="url(#clip0_103_37)">
<path d="M38 16.625C42.5909 16.625 46.3125 12.9034 46.3125 8.3125C46.3125 3.72163 42.5909 0 38 0C33.4091 0 29.6875 3.72163 29.6875 8.3125C29.6875 12.9034 33.4091 16.625 38 16.625Z" fill="white"/>
<path d="M64.8672 19.0001H11.1328C10.0699 19.0001 9.05047 19.4223 8.29886 20.1739C7.54725 20.9255 7.125 21.9449 7.125 23.0079C7.125 24.0708 7.54725 25.0902 8.29886 25.8418C9.05047 26.5934 10.0699 27.0157 11.1328 27.0157H26.2556C27.2813 27.0157 28.4822 27.4744 29.162 29.2422C29.9562 31.2951 29.5673 35.2599 29.0774 38.3311L28.4362 41.9604C28.4374 41.9698 28.4364 41.9794 28.4333 41.9884C28.4302 41.9974 28.4251 42.0056 28.4184 42.0123L23.2824 71.2263C23.0962 72.2868 23.3375 73.3778 23.9537 74.2608C24.5699 75.1437 25.5107 75.7467 26.5703 75.9377C27.0942 76.0304 27.6312 76.018 28.1503 75.9014C28.6694 75.7848 29.1601 75.5663 29.594 75.2585C30.0279 74.9506 30.3963 74.5597 30.6779 74.1083C30.9595 73.6569 31.1486 73.1541 31.2342 72.6291L34.7834 52.3228C34.7834 52.3228 35.9219 47.5001 38 47.5001C40.1123 47.5001 41.227 52.3228 41.227 52.3228L44.7762 72.6469C44.862 73.1765 45.0524 73.6838 45.3363 74.1392C45.6202 74.5945 45.9919 74.9888 46.4298 75.2991C46.8676 75.6093 47.3628 75.8293 47.8865 75.9462C48.4102 76.0632 48.9519 76.0747 49.4801 75.9801C50.0083 75.8855 50.5124 75.6868 50.963 75.3954C51.4136 75.1041 51.8017 74.7259 52.1047 74.283C52.4077 73.8402 52.6195 73.3414 52.7278 72.8158C52.8361 72.2903 52.8386 71.7484 52.7354 71.2219L47.598 42.0079C47.599 41.9986 47.5982 41.9891 47.5953 41.9802C47.5925 41.9712 47.5879 41.9629 47.5816 41.9559L46.9389 38.3266C46.4491 35.2555 46.0602 31.2907 46.8543 29.2378C47.5312 27.4744 48.7706 27.0112 49.7162 27.0112H64.8672C65.9301 27.0112 66.9495 26.589 67.7011 25.8374C68.4528 25.0858 68.875 24.0664 68.875 23.0034C68.875 21.9405 68.4528 20.9211 67.7011 20.1695C66.9495 19.4179 65.9301 18.9956 64.8672 18.9956V19.0001Z" fill="white"/>
</g>
<defs>
<clipPath id="clip0_103_37">
<rect width="76" height="76" fill="white"/>
</clipPath>
</defs>
</svg>
